<svg width="100" height="100" viewBox="0 0 100 100" fill="none" xmlns="http://www.w3.org/2000/svg">
<g id="bootstrap 1" clip-path="url(#clip0_10_21)">
<path id="Vector" d="M31.6375 74.9999H53.3563C64.6313 74.9999 71.4063 69.3249 71.4063 60.0249C71.4063 53.1374 66.65 48.0499 59.5063 47.3124V46.6874C64.7063 45.8124 68.7688 40.8749 68.7688 35.3374C68.7688 27.2124 62.8 22.1499 52.8813 22.1499H31.6375V74.9999ZM39.8438 44.5312V29.1124H50.9688C57.05 29.1124 60.6063 31.9687 60.6063 36.8437C60.6063 41.8562 56.8313 44.5312 49.5813 44.5312H39.8438ZM39.8438 68.0437V51.0124H51.2313C58.9563 51.0124 63.025 53.9062 63.025 59.4374C63.025 65.0374 59.1063 68.0437 51.7063 68.0437H39.8438Z" fill="#EAE6ED"/>
<path id="Vector_2" d="M0 25C0 18.3696 2.63392 12.0107 7.32233 7.32233C12.0107 2.63392 18.3696 0 25 0L75 0C81.6304 0 87.9893 2.63392 92.6777 7.32233C97.3661 12.0107 100 18.3696 100 25V75C100 81.6304 97.3661 87.9893 92.6777 92.6777C87.9893 97.3661 81.6304 100 75 100H25C18.3696 100 12.0107 97.3661 7.32233 92.6777C2.63392 87.9893 0 81.6304 0 75V25ZM25 6.25C20.0272 6.25 15.2581 8.22544 11.7417 11.7417C8.22544 15.2581 6.25 20.0272 6.25 25V75C6.25 79.9728 8.22544 84.742 11.7417 88.2583C15.2581 91.7746 20.0272 93.75 25 93.75H75C79.9728 93.75 84.742 91.7746 88.2583 88.2583C91.7746 84.742 93.75 79.9728 93.75 75V25C93.75 20.0272 91.7746 15.2581 88.2583 11.7417C84.742 8.22544 79.9728 6.25 75 6.25H25Z" fill="#EAE6ED"/>
</g>
<defs>
<clipPath id="clip0_10_21">
<rect width="100" height="100" fill="white"/>
</clipPath>
</defs>
</svg>
