<svg width="56" height="32" viewBox="0 0 56 32" fill="none" xmlns="http://www.w3.org/2000/svg">
<g id="chevron-down 2">
<path id="Vector" fill-rule="evenodd" clip-rule="evenodd" d="M5.76099 9.29196C5.92355 9.19883 6.11666 9.12494 6.32927 9.07453C6.54188 9.02412 6.7698 8.99817 6.99999 8.99817C7.23017 8.99817 7.4581 9.02412 7.6707 9.07453C7.88331 9.12494 8.07643 9.19883 8.23899 9.29196L28 20.586L47.761 9.29196C47.9237 9.19898 48.1169 9.12523 48.3294 9.07491C48.542 9.02459 48.7699 8.99869 49 8.99869C49.2301 8.99869 49.4579 9.02459 49.6705 9.07491C49.8831 9.12523 50.0763 9.19898 50.239 9.29196C50.4017 9.38493 50.5308 9.49531 50.6188 9.61679C50.7069 9.73827 50.7522 9.86847 50.7522 9.99996C50.7522 10.1314 50.7069 10.2616 50.6188 10.3831C50.5308 10.5046 50.4017 10.615 50.239 10.708L29.239 22.708C29.0764 22.8011 28.8833 22.875 28.6707 22.9254C28.4581 22.9758 28.2302 23.0017 28 23.0017C27.7698 23.0017 27.5419 22.9758 27.3293 22.9254C27.1167 22.875 26.9235 22.8011 26.761 22.708L5.76099 10.708C5.59801 10.6151 5.46871 10.5047 5.38049 10.3832C5.29227 10.2617 5.24686 10.1315 5.24686 9.99996C5.24686 9.86842 5.29227 9.73818 5.38049 9.61669C5.46871 9.4952 5.59801 9.38485 5.76099 9.29196Z" fill="#EAE6ED"/>
</g>
</svg>
