<svg width="100" height="100" viewBox="0 0 100 100" fill="none" xmlns="http://www.w3.org/2000/svg">
<g id="icons8-html-5 1">
<path id="Vector" d="M90.5469 4.64844C90.1719 4.23438 89.6328 4 89.0703 4H10.9297C10.3672 4 9.82813 4.23438 9.45313 4.64844C9.07031 5.0625 8.88281 5.61719 8.9375 6.17969L15.9766 85.0312C16.0469 85.8594 16.625 86.5469 17.4219 86.7812L49.4453 95.9219C49.6172 95.9766 49.8047 96 49.9922 96C50.1797 96 50.3594 95.9766 50.5391 95.9219L82.5859 86.7812C83.3828 86.5469 83.9531 85.8594 84.0312 85.0312L91.0625 6.17969C91.1172 5.61719 90.9297 5.0625 90.5469 4.64844ZM73.6953 31.8359H36.0703L36.9688 42.0156H72.7891L70.1016 72.1016L49.9844 78.1797L49.7891 78.1172L29.9062 72.0938L28.8203 59.8359H38.5625L38.9844 64.5938L50.1016 66.9219L61.0156 64.5938L62.1797 51.7188H28.0938L25.4453 22.1094H74.5625L73.6953 31.8359Z" fill="#EAE6ED"/>
</g>
</svg>
