<svg width="100" height="90" viewBox="0 0 100 90" fill="none" xmlns="http://www.w3.org/2000/svg">
<path id="Vector" d="M31.9987 0C29.4529 0 27.0917 0.568955 25 1.77108C18.463 5.5388 15.9749 14.7204 17.2933 26.1518C6.71959 30.7277 0 37.4656 0 45C0 52.5344 6.71959 59.2723 17.2933 63.8482C15.9755 75.2791 18.463 84.4612 25 88.2289C27.0875 89.431 29.4487 90 31.9987 90C37.4263 90 43.6994 87.2806 50 82.6151C56.3012 87.2806 62.5818 90 68.0094 90C70.5553 90 72.9165 89.431 75.0081 88.2289C81.5451 84.4612 84.0332 75.2795 82.7148 63.8482C93.2846 59.2723 100 52.5328 100 45C100 37.4656 93.2804 30.7277 82.7067 26.1518C84.0245 14.7209 81.537 5.5388 75 1.77108C72.9125 0.564795 70.5513 0 68.0013 0C62.5737 0 56.3006 2.71942 50 7.38491C43.699 2.71942 37.4244 0 31.9987 0ZM31.9987 7.27929C35.2555 7.27929 39.5623 9.00805 44.2383 12.2107C41.489 14.8008 38.7965 17.746 36.2061 21.0255C32.0045 21.6269 28.0431 22.5036 24.3734 23.6008C24.3537 23.3468 24.307 23.0802 24.292 22.829C23.8462 15.4249 25.475 9.90569 28.6458 8.07546C29.5833 7.53472 30.6779 7.27929 31.9987 7.27929ZM68.0013 7.27929C69.318 7.27929 70.4167 7.53472 71.3542 8.07546C74.525 9.90153 76.1538 15.4249 75.708 22.829C75.6929 23.0802 75.6464 23.3468 75.6266 23.6008C71.9546 22.5029 67.9903 21.6269 63.7858 21.0255C61.1954 17.7465 58.5109 14.8005 55.7617 12.2107C60.4373 9.00859 64.7462 7.27929 68.0013 7.27929ZM50 16.8334C51.1295 17.8597 52.2511 18.9444 53.3854 20.1318C52.2613 20.0941 51.1432 20.0424 50 20.0424C48.8595 20.0424 47.7442 20.0943 46.6227 20.1318C47.756 18.9457 48.8716 17.8587 50 16.8334ZM50 27.3217C53.4529 27.3217 56.7255 27.5144 59.8307 27.8498C61.7244 30.4194 63.5907 33.136 65.3402 36.1609C67.017 39.0602 68.4997 42.0279 69.8079 45C68.4996 47.9739 67.018 50.9461 65.3402 53.8473C63.5962 56.8633 61.7345 59.5625 59.847 62.1258C56.6321 62.477 53.3342 62.6783 50 62.6783C46.5471 62.6783 43.2745 62.4856 40.1693 62.1502C38.2756 59.5806 36.4093 56.8721 34.6598 53.8473C32.982 50.9461 31.5008 47.9739 30.1921 45C31.4999 42.0279 32.983 39.0602 34.6598 36.1609C36.4045 33.1448 38.265 30.4375 40.153 27.8742C43.3679 27.523 46.6658 27.3217 50 27.3217ZM69.7754 29.5721C71.4285 29.9706 73.0177 30.4007 74.5117 30.8801C74.1732 32.4069 73.7593 33.963 73.291 35.5353C72.7548 34.5309 72.2349 33.5233 71.6553 32.5212C71.0589 31.4904 70.3968 30.5644 69.7754 29.5721ZM30.2165 29.5802C29.5971 30.5694 28.9392 31.4938 28.3447 32.5212C27.7653 33.5234 27.245 34.5307 26.709 35.5353C26.2396 33.9597 25.819 32.4018 25.4801 30.872C27.0015 30.3921 28.5868 29.9672 30.2165 29.5802ZM18.6198 33.5449C19.4977 37.2453 20.7155 41.0813 22.2819 44.9919C20.7189 48.8931 19.5061 52.7221 18.6279 56.4145C11.3718 52.9166 7.29167 48.5622 7.29167 45C7.29167 41.3437 11.2578 37.1769 17.9036 33.8617C18.1305 33.7484 18.388 33.6555 18.6198 33.5449ZM81.3721 33.5855C88.6282 37.0834 92.7083 41.4378 92.7083 45C92.7083 48.6563 88.7422 52.8231 82.0964 56.1383C81.8695 56.2516 81.612 56.3445 81.3802 56.4551C80.5018 52.7525 79.2939 48.9129 77.7262 45C79.2874 41.1021 80.4946 37.2748 81.3721 33.5855ZM50 36.6808C45.3958 36.6808 41.6667 40.4036 41.6667 45C41.6667 49.5964 45.3958 53.3192 50 53.3192C54.6042 53.3192 58.3333 49.5964 58.3333 45C58.3333 40.4036 54.6042 36.6808 50 36.6808ZM26.709 54.4647C27.2453 55.4695 27.773 56.4764 28.3529 57.4788C28.9486 58.5088 29.6038 59.4363 30.2246 60.4279C28.5715 60.0294 26.9823 59.5993 25.4883 59.1199C25.827 57.5921 26.2403 56.038 26.709 54.4647ZM73.291 54.4728C73.7598 56.0469 74.1813 57.5996 74.5199 59.128C72.9985 59.6079 71.4132 60.0328 69.7835 60.4198C70.4029 59.4306 71.0608 58.5062 71.6553 57.4788C72.2335 56.4786 72.756 55.4753 73.291 54.4728ZM24.3734 66.3992C28.0454 67.4971 32.0097 68.3731 36.2142 68.9745C38.8054 72.2551 41.4879 75.2067 44.2383 77.7974C39.5627 80.9991 35.2553 82.7288 31.9987 82.7288C30.682 82.7288 29.5833 82.4653 28.6458 81.9245C25.475 80.0985 23.8462 74.5832 24.292 67.1791C24.3073 66.9253 24.3533 66.6559 24.3734 66.3992ZM75.6266 66.3992C75.6466 66.6559 75.6928 66.9253 75.708 67.1791C76.1538 74.5832 74.525 80.0943 71.3542 81.9245C70.4167 82.4653 69.3221 82.7288 68.0013 82.7288C64.7447 82.7288 60.4373 80.9997 55.7617 77.7974C58.5123 75.2064 61.2023 72.2556 63.7939 68.9745C67.9955 68.3731 71.9569 67.4964 75.6266 66.3992ZM46.6146 69.8682C47.7387 69.9059 48.8568 69.9576 50 69.9576C51.1432 69.9576 52.2613 69.9059 53.3854 69.8682C52.2511 71.0556 51.1295 72.1404 50 73.1666C48.8705 72.1403 47.7489 71.0556 46.6146 69.8682Z" fill="#E6EAED"/>
</svg>
