<svg width="100" height="100" viewBox="0 0 100 100" fill="none" xmlns="http://www.w3.org/2000/svg">
<g id="icons8-sass 1" clip-path="url(#clip0_10_17)">
<path id="Vector" d="M86.06 55.6041C82.566 55.6221 79.538 56.4621 77 57.7121C76.072 55.8601 75.132 54.2301 74.974 53.0181C74.79 51.6041 74.576 50.7601 74.798 49.0741C75.02 47.3881 75.996 45.0021 75.98 44.8241C75.966 44.6461 75.762 43.7881 73.746 43.7721C71.73 43.7581 70.006 44.1601 69.802 44.6921C69.598 45.2241 69.21 46.4221 68.97 47.6721C68.616 49.5001 64.946 56.0201 62.86 59.4301C62.178 58.0981 61.598 56.9261 61.478 55.9981C61.294 54.5841 61.08 53.7401 61.302 52.0541C61.524 50.3681 62.5 47.9821 62.484 47.8041C62.47 47.6261 62.266 46.7681 60.25 46.7521C58.234 46.7381 56.51 47.1401 56.306 47.6721C56.102 48.2041 55.886 49.4481 55.474 50.6521C55.06 51.8561 50.18 62.7301 48.902 65.5481C48.25 66.9841 47.684 68.1381 47.284 68.9261C47.282 68.9241 47.282 68.9221 47.282 68.9221C47.282 68.9221 47.258 68.9741 47.214 69.0641C46.872 69.7341 46.668 70.1061 46.668 70.1061C46.668 70.1061 46.67 70.1121 46.674 70.1201C46.402 70.6121 46.112 71.0701 45.968 71.0701C45.868 71.0701 45.666 69.7581 46.012 67.9601C46.738 64.1881 48.482 58.3041 48.466 58.1021C48.458 57.9981 48.79 56.9741 47.326 56.4361C45.904 55.9161 45.396 56.7841 45.266 56.7861C45.14 56.7881 45.046 57.0921 45.046 57.0921C45.046 57.0921 46.632 50.4761 42.022 50.4761C39.142 50.4761 35.15 53.6281 33.182 56.4841C31.942 57.1601 29.286 58.6101 26.468 60.1581C25.386 60.7521 24.282 61.3601 23.234 61.9381C23.162 61.8601 23.092 61.7801 23.018 61.7021C17.43 55.7401 7.10202 51.5241 7.54002 43.5101C7.70002 40.5961 8.71202 32.9241 27.388 23.6181C42.686 15.9941 54.934 18.0921 57.05 22.7421C60.074 29.3841 50.504 41.7301 34.618 43.5101C28.564 44.1881 25.378 41.8421 24.584 40.9681C23.75 40.0481 23.626 40.0061 23.314 40.1801C22.806 40.4621 23.128 41.2741 23.314 41.7581C23.788 42.9921 25.734 45.1821 29.054 46.2701C31.974 47.2281 39.08 47.7541 47.676 44.4301C57.302 40.7061 64.818 30.3481 62.612 21.6901C60.366 12.8841 45.766 9.99008 31.948 14.8981C23.724 17.8201 14.822 22.4061 8.42002 28.3921C0.808019 35.5121 -0.403981 41.7081 0.0960191 44.2961C1.87402 53.4961 14.552 59.4861 19.63 63.9261C19.38 64.0641 19.144 64.1941 18.93 64.3121C16.384 65.5721 6.72002 70.6301 4.30202 75.9741C1.56002 82.0361 4.73802 86.3861 6.84402 86.9721C13.364 88.7861 20.056 85.5221 23.652 80.1581C27.248 74.7961 26.808 67.8141 25.158 64.6261C25.138 64.5861 25.114 64.5481 25.094 64.5081C25.752 64.1181 26.422 63.7241 27.086 63.3341C28.382 62.5741 29.654 61.8641 30.758 61.2621C30.14 62.9541 29.688 64.9821 29.452 67.9121C29.176 71.3541 30.586 75.8021 32.432 77.5521C33.244 78.3221 34.222 78.3401 34.842 78.3401C36.99 78.3401 37.97 76.5541 39.048 74.4401C40.372 71.8481 41.546 68.8321 41.546 68.8321C41.546 68.8321 40.072 76.9821 44.088 76.9821C45.55 76.9821 47.022 75.0841 47.678 74.1181C47.68 74.1281 47.68 74.1341 47.68 74.1341C47.68 74.1341 47.718 74.0721 47.792 73.9441C47.944 73.7121 48.03 73.5641 48.03 73.5641C48.03 73.5641 48.034 73.5481 48.038 73.5221C48.626 72.5021 49.93 70.1741 51.886 66.3341C54.412 61.3741 56.836 55.1621 56.836 55.1621C56.836 55.1621 57.062 56.6821 57.8 59.1921C58.234 60.6701 59.158 62.3041 59.886 63.8701C59.3 64.6841 58.94 65.1501 58.94 65.1501C58.94 65.1501 58.944 65.1581 58.95 65.1741C58.482 65.7961 57.956 66.4661 57.406 67.1221C55.412 69.4981 53.036 72.2101 52.718 72.9941C52.344 73.9161 52.432 74.5961 53.156 75.1401C53.684 75.5381 54.626 75.6001 55.61 75.5341C57.402 75.4141 58.664 74.9681 59.286 74.6981C60.256 74.3561 61.386 73.8161 62.446 73.0361C64.402 71.5981 65.582 69.5401 65.47 66.8141C65.408 65.3121 64.928 63.8241 64.322 62.4181C64.5 62.1621 64.678 61.9061 64.856 61.6441C67.94 57.1341 70.332 52.1801 70.332 52.1801C70.332 52.1801 70.558 53.7001 71.296 56.2101C71.67 57.4821 72.408 58.8681 73.07 60.2281C70.17 62.5841 68.372 65.3221 67.746 67.1181C66.592 70.4401 67.496 71.9461 69.192 72.2881C69.96 72.4441 71.046 72.0921 71.862 71.7461C72.878 71.4101 74.098 70.8481 75.238 70.0101C77.194 68.5721 79.076 66.5581 78.962 63.8321C78.91 62.5921 78.574 61.3601 78.118 60.1761C80.576 59.1521 83.76 58.5821 87.814 59.0561C96.512 60.0721 98.218 65.5021 97.892 67.7741C97.566 70.0481 95.742 71.2961 95.132 71.6741C94.522 72.0521 94.336 72.1821 94.388 72.4621C94.462 72.8701 94.744 72.8541 95.264 72.7661C95.98 72.6461 99.83 70.9181 99.996 66.7221C100.204 61.4061 95.1 55.5561 86.06 55.6041ZM19.024 78.2041C16.144 81.3461 12.118 82.5341 10.392 81.5341C8.52802 80.4541 9.26602 75.8261 12.802 72.4921C14.956 70.4601 17.738 68.5881 19.584 67.4341C20.004 67.1821 20.62 66.8101 21.37 66.3601C21.494 66.2901 21.564 66.2501 21.564 66.2501L21.562 66.2461C21.706 66.1601 21.856 66.0701 22.008 65.9781C23.294 70.7261 22.048 74.9061 19.024 78.2041ZM40.01 63.9361C39.006 66.3821 36.906 72.6401 35.628 72.3041C34.53 72.0161 33.862 67.2581 35.408 62.5781C36.186 60.2221 37.848 57.4061 38.826 56.3121C40.398 54.5541 42.13 53.9781 42.55 54.6921C43.088 55.6001 40.64 62.4021 40.01 63.9361ZM57.35 72.2101C56.924 72.4321 56.534 72.5721 56.354 72.4641C56.22 72.3841 56.53 72.0921 56.53 72.0921C56.53 72.0921 58.698 69.7581 59.554 68.6961C60.05 68.0781 60.628 67.3441 61.254 66.5241C61.26 66.6061 61.262 66.6881 61.262 66.7681C61.254 69.5641 58.554 71.4501 57.35 72.2101ZM70.708 69.1641C70.39 68.9381 70.444 68.2081 71.486 65.9361C71.896 65.0441 72.83 63.5401 74.456 62.1041C74.644 62.6941 74.76 63.2601 74.756 63.7881C74.734 67.3061 72.224 68.6201 70.708 69.1641Z" fill="#EAE6ED"/>
</g>
<defs>
<clipPath id="clip0_10_17">
<rect width="100" height="100" fill="white"/>
</clipPath>
</defs>
</svg>
